<svg xmlns="http://www.w3.org/2000/svg" viewBox="0 0 611 73" width="611" height="73">
<path fill="#ffffff" d="M34.53 44.36L34.70 44.36L47.63 27.81Q49.86 24.95 50.97 23.36Q52.08 21.76 52.08 21.05L52.08 21.05Q52.08 20.46 51.43 20.27Q50.78 20.08 49.44 20.08L49.44 20.08L49.86 18.40L60.74 18.40L60.32 20.08Q59.01 20.08 57.59 20.75Q56.16 21.42 54.35 23.17Q52.55 24.91 50.11 28.10L50.11 28.10L32.43 51.16L28.90 51.16L33.44 31.13L18.06 51.16L14.54 51.16L20.37 25.37Q20.88 23.15 20.88 22.14L20.88 22.14Q20.88 20.92 20.08 20.50Q19.28 20.08 16.97 20.08L16.97 20.08L17.39 18.40L28.98 18.40L28.56 20.08Q27.39 20.08 26.65 20.46Q25.92 20.84 25.41 21.99Q24.91 23.15 24.41 25.41L24.41 25.41L20.16 44.36L20.33 44.36L34.57 26.09L34.74 25.37Q35.24 23.15 35.24 22.14L35.24 22.14Q35.24 20.92 34.53 20.50Q33.81 20.08 31.76 20.08L31.76 20.08L32.18 18.40L44.19 18.40L43.77 20.08Q42.13 20.08 41.23 20.46Q40.32 20.84 39.80 21.97Q39.27 23.10 38.77 25.41L38.77 25.41L34.53 44.36ZM53.93 51.16L53.93 51.16Q51.83 51.16 50.61 49.52Q49.40 47.88 49.40 45.07L49.40 45.07Q49.40 42.76 50.17 40.34Q50.95 37.93 52.31 35.75Q53.68 33.56 55.38 31.82Q57.08 30.08 58.97 29.07Q60.86 28.06 62.67 28.06L62.67 28.06Q65.36 28.06 66.36 30.83L66.36 30.83L67.25 28.48L70.73 28.48L68.34 34.91Q67.75 36.50 67.18 38.31Q66.62 40.11 66.17 41.81Q65.73 43.52 65.48 44.86Q65.23 46.20 65.23 46.92L65.23 46.92Q65.23 48.14 66.03 48.14L66.03 48.14Q66.62 48.14 67.73 46.92Q68.84 45.70 70.23 43.77L70.23 43.77L71.32 44.65Q69.60 47.72 67.54 49.44Q65.48 51.16 63.59 51.16L63.59 51.16Q62.63 51.16 62.10 50.43Q61.58 49.69 61.58 48.01L61.58 48.01Q61.58 47.63 61.62 47.11Q61.66 46.58 61.70 45.78L61.70 45.78L61.53 45.74Q60.74 47.30 59.48 48.51Q58.22 49.73 56.77 50.45Q55.32 51.16 53.93 51.16ZM55.74 48.18L55.74 48.18Q56.91 48.18 58.15 47.11Q59.39 46.04 60.55 44.27Q61.70 42.51 62.63 40.41Q63.55 38.31 64.10 36.27Q64.64 34.23 64.64 32.60L64.64 32.60Q64.64 31.50 64.18 30.87Q63.72 30.24 62.92 30.24L62.92 30.24Q61.62 30.24 60.27 31.19Q58.93 32.13 57.71 33.71Q56.49 35.28 55.51 37.22Q54.52 39.15 53.95 41.14Q53.39 43.14 53.39 44.86L53.39 44.86Q53.39 46.37 54.04 47.27Q54.69 48.18 55.74 48.18ZM90.77 30.24L90.77 30.24Q89.76 30.24 88.50 31.25Q87.24 32.26 85.89 34.00Q84.55 35.75 83.33 37.91Q82.11 40.07 81.27 42.34L81.27 42.34L78.17 50.74L74.47 50.74L77.58 41.12Q78.59 38.06 79.15 36.15Q79.72 34.23 79.97 33.14Q80.22 32.05 80.22 31.50L80.22 31.50Q80.22 30.37 79.51 30.37L79.51 30.37Q78.88 30.37 78.00 31.36Q77.12 32.34 76.28 33.88Q75.44 35.41 74.89 37.13L74.89 37.13L73.63 36.50Q75.10 32.22 76.95 30.14Q78.80 28.06 81.11 28.06L81.11 28.06Q82.45 28.06 83.02 28.82Q83.58 29.57 83.58 31.38L83.58 31.38Q83.58 32.43 83.42 33.37Q83.25 34.32 82.87 35.20L82.87 35.20L83.00 35.33Q84.42 32.81 85.87 31.21Q87.32 29.61 88.88 28.84Q90.43 28.06 92.15 28.06L92.15 28.06Q94 28.06 94.97 28.94Q95.93 29.82 95.93 31.46L95.93 31.46Q95.93 32.18 95.74 33.14Q95.55 34.11 95.07 35.66Q94.59 37.22 93.71 39.74L93.71 39.74Q92.74 42.55 92.11 44.50Q91.48 46.46 91.48 47.25L91.48 47.25Q91.48 47.88 91.90 47.88L91.90 47.88Q92.49 47.88 93.62 46.92Q94.76 45.95 96.69 43.81L96.69 43.81L97.78 44.40Q97.11 45.66 96.06 46.86Q95.01 48.05 93.81 49.02Q92.61 49.98 91.50 50.57Q90.39 51.16 89.55 51.16L89.55 51.16Q88.50 51.16 87.89 50.24Q87.28 49.31 87.28 47.80L87.28 47.80Q87.28 47.21 87.38 46.58Q87.49 45.95 87.83 44.86Q88.16 43.77 88.81 41.84Q89.46 39.90 90.60 36.75L90.60 36.75Q91.35 34.57 91.63 33.56Q91.90 32.55 91.90 31.80L91.90 31.80Q91.90 31 91.63 30.62Q91.35 30.24 90.77 30.24ZM104.79 51.16L104.79 51.16Q103.37 51.16 102.21 50.34Q101.06 49.52 100.38 48.03Q99.71 46.54 99.71 44.61L99.71 44.61Q99.71 42.42 100.51 40.09Q101.31 37.76 102.67 35.62Q104.04 33.48 105.74 31.78Q107.44 30.08 109.29 29.07Q111.14 28.06 112.86 28.06L112.86 28.06Q114.33 28.06 115.04 28.61Q115.76 29.15 116.47 30.33L116.47 30.33L118.91 21.68Q119.24 20.54 119.41 19.79Q119.58 19.03 119.58 18.69L119.58 18.69Q119.58 18.06 118.74 17.81Q117.90 17.56 115.71 17.56L115.71 17.56L116.18 15.88L124.28 15.88L119.62 32.89Q118.44 37.26 117.77 39.97Q117.10 42.68 116.85 44.19Q116.60 45.70 116.60 46.62L116.60 46.62Q116.60 47.55 116.91 47.95Q117.23 48.35 117.65 48.35L117.65 48.35Q118.57 48.35 119.66 46.79Q120.75 45.24 121.55 42.72L121.55 42.72L123.15 43.10Q121.72 47.21 120.02 49.19Q118.32 51.16 116.18 51.16L116.18 51.16Q114.66 51.16 113.84 50.19Q113.03 49.23 113.03 47.42L113.03 47.42Q113.03 46.96 113.11 46.46Q113.19 45.95 113.32 45.49L113.32 45.49L112.98 45.41Q111.93 47.25 110.55 48.54Q109.16 49.82 107.67 50.49Q106.18 51.16 104.79 51.16ZM106.56 48.43L106.56 48.43Q107.69 48.43 108.91 47.36Q110.13 46.29 111.26 44.57Q112.40 42.84 113.30 40.79Q114.20 38.73 114.73 36.69Q115.25 34.65 115.25 33.06L115.25 33.06Q115.25 31.76 114.75 31.02Q114.24 30.29 113.15 30.29L113.15 30.29Q111.85 30.29 110.51 31.25Q109.16 32.22 107.97 33.81Q106.77 35.41 105.82 37.36Q104.88 39.32 104.33 41.33Q103.79 43.35 103.79 45.11L103.79 45.11Q103.79 46.62 104.54 47.53Q105.30 48.43 106.56 48.43ZM130.96 51.16L130.96 51.16Q128.10 51.16 126.53 49.35Q124.95 47.55 124.95 44.31L124.95 44.31Q124.95 42.00 125.73 39.67Q126.51 37.34 127.85 35.26Q129.20 33.18 130.92 31.57Q132.64 29.95 134.55 29.00Q136.46 28.06 138.39 28.06L138.39 28.06Q140.41 28.06 141.69 29.09Q142.97 30.12 142.97 31.71L142.97 31.71Q142.97 33.18 141.90 34.72Q140.83 36.25 138.92 37.68Q137.01 39.11 134.53 40.22Q132.05 41.33 129.24 41.96L129.24 41.96Q129.15 42.55 129.11 43.12Q129.07 43.68 129.07 44.27L129.07 44.27Q129.07 46.50 129.91 47.67Q130.75 48.85 132.30 48.85L132.30 48.85Q133.86 48.85 135.52 47.63Q137.18 46.41 138.60 44.27L138.60 44.27L139.95 45.15Q138.14 48.09 135.85 49.63Q133.56 51.16 130.96 51.16ZM129.66 40.07L129.66 40.07Q132.35 39.32 134.47 38.01Q136.59 36.71 137.81 35.09Q139.02 33.48 139.02 31.80L139.02 31.80Q139.02 30.03 137.55 30.03L137.55 30.03Q136.46 30.03 135.29 30.87Q134.11 31.71 133.04 33.14Q131.97 34.57 131.09 36.36Q130.20 38.14 129.66 40.07ZM145.49 34.86L145.49 34.86L144.40 34.32Q144.86 33.27 145.81 32.18Q146.75 31.08 147.89 30.14Q149.02 29.19 150.13 28.63Q151.25 28.06 152.09 28.06L152.09 28.06Q153.09 28.06 153.56 28.82Q154.02 29.57 154.02 31.25L154.02 31.25Q154.02 32.51 153.72 34.02L153.72 34.02L153.85 34.15Q154.56 32.51 155.89 31.02Q157.21 29.53 158.74 28.59Q160.28 27.64 161.54 27.64L161.54 27.64Q162.75 27.64 163.57 28.42Q164.39 29.19 164.39 30.33L164.39 30.33Q164.39 31.42 163.70 32.13Q163.01 32.85 161.91 32.85L161.91 32.85Q161.03 32.85 160.59 32.45Q160.15 32.05 159.81 31.67Q159.48 31.29 158.97 31.29L158.97 31.29Q157.92 31.29 156.43 33.12Q154.94 34.95 153.43 38.04Q151.92 41.12 150.66 44.94L150.66 44.94L148.77 50.74L144.86 50.74L147.59 42.05Q148.68 38.69 149.25 36.77Q149.82 34.86 150.03 33.86Q150.24 32.85 150.24 32.26L150.24 32.26Q150.24 31.80 150.09 31.57Q149.94 31.34 149.61 31.34L149.61 31.34Q149.06 31.34 148.22 31.88Q147.38 32.43 146.63 33.25Q145.87 34.07 145.49 34.86ZM168.80 51.16L168.80 51.16Q165.95 51.16 164.37 49.35Q162.80 47.55 162.80 44.31L162.80 44.31Q162.80 42.00 163.57 39.67Q164.35 37.34 165.69 35.26Q167.04 33.18 168.76 31.57Q170.48 29.95 172.39 29.00Q174.30 28.06 176.24 28.06L176.24 28.06Q178.25 28.06 179.53 29.09Q180.81 30.12 180.81 31.71L180.81 31.71Q180.81 33.18 179.74 34.72Q178.67 36.25 176.76 37.68Q174.85 39.11 172.37 40.22Q169.89 41.33 167.08 41.96L167.08 41.96Q167.00 42.55 166.95 43.12Q166.91 43.68 166.91 44.27L166.91 44.27Q166.91 46.50 167.75 47.67Q168.59 48.85 170.15 48.85L170.15 48.85Q171.70 48.85 173.36 47.63Q175.02 46.41 176.45 44.27L176.45 44.27L177.79 45.15Q175.98 48.09 173.69 49.63Q171.41 51.16 168.80 51.16ZM167.50 40.07L167.50 40.07Q170.19 39.32 172.31 38.01Q174.43 36.71 175.65 35.09Q176.87 33.48 176.87 31.80L176.87 31.80Q176.87 30.03 175.40 30.03L175.40 30.03Q174.30 30.03 173.13 30.87Q171.95 31.71 170.88 33.14Q169.81 34.57 168.93 36.36Q168.05 38.14 167.50 40.07ZM183.33 34.86L183.33 34.86L182.24 34.32Q182.70 33.27 183.65 32.18Q184.59 31.08 185.73 30.14Q186.86 29.19 187.98 28.63Q189.09 28.06 189.93 28.06L189.93 28.06Q190.94 28.06 191.40 28.82Q191.86 29.57 191.86 31.25L191.86 31.25Q191.86 32.51 191.57 34.02L191.57 34.02L191.69 34.15Q192.41 32.51 193.73 31.02Q195.05 29.53 196.59 28.59Q198.12 27.64 199.38 27.64L199.38 27.64Q200.60 27.64 201.42 28.42Q202.23 29.19 202.23 30.33L202.23 30.33Q202.23 31.42 201.54 32.13Q200.85 32.85 199.76 32.85L199.76 32.85Q198.87 32.85 198.43 32.45Q197.99 32.05 197.66 31.67Q197.32 31.29 196.82 31.29L196.82 31.29Q195.77 31.29 194.28 33.12Q192.78 34.95 191.27 38.04Q189.76 41.12 188.50 44.94L188.50 44.94L186.61 50.74L182.70 50.74L185.43 42.05Q186.53 38.69 187.09 36.77Q187.66 34.86 187.87 33.86Q188.08 32.85 188.08 32.26L188.08 32.26Q188.08 31.80 187.93 31.57Q187.79 31.34 187.45 31.34L187.45 31.34Q186.90 31.34 186.06 31.88Q185.22 32.43 184.47 33.25Q183.71 34.07 183.33 34.86ZM216.14 51.16L216.14 51.16Q214.04 51.16 212.82 49.52Q211.60 47.88 211.60 45.07L211.60 45.07Q211.60 42.76 212.38 40.34Q213.15 37.93 214.52 35.75Q215.88 33.56 217.59 31.82Q219.29 30.08 221.18 29.07Q223.07 28.06 224.87 28.06L224.87 28.06Q227.56 28.06 228.57 30.83L228.57 30.83L229.45 28.48L232.94 28.48L230.54 34.91Q229.95 36.50 229.39 38.31Q228.82 40.11 228.38 41.81Q227.94 43.52 227.69 44.86Q227.43 46.20 227.43 46.92L227.43 46.92Q227.43 48.14 228.23 48.14L228.23 48.14Q228.82 48.14 229.93 46.92Q231.05 45.70 232.43 43.77L232.43 43.77L233.52 44.65Q231.80 47.72 229.74 49.44Q227.69 51.16 225.80 51.16L225.80 51.16Q224.83 51.16 224.31 50.43Q223.78 49.69 223.78 48.01L223.78 48.01Q223.78 47.63 223.82 47.11Q223.86 46.58 223.91 45.78L223.91 45.78L223.74 45.74Q222.94 47.30 221.68 48.51Q220.42 49.73 218.97 50.45Q217.52 51.16 216.14 51.16ZM217.94 48.18L217.94 48.18Q219.12 48.18 220.36 47.11Q221.60 46.04 222.75 44.27Q223.91 42.51 224.83 40.41Q225.75 38.31 226.30 36.27Q226.85 34.23 226.85 32.60L226.85 32.60Q226.85 31.50 226.38 30.87Q225.92 30.24 225.12 30.24L225.12 30.24Q223.82 30.24 222.48 31.19Q221.13 32.13 219.92 33.71Q218.70 35.28 217.71 37.22Q216.72 39.15 216.16 41.14Q215.59 43.14 215.59 44.86L215.59 44.86Q215.59 46.37 216.24 47.27Q216.89 48.18 217.94 48.18ZM240.96 16.30L249.02 15.92L243.69 32.09L243.81 32.18Q245.03 30.24 246.86 29.17Q248.69 28.10 250.74 28.10L250.74 28.10Q253.31 28.10 254.69 29.72Q256.08 31.34 256.08 34.07L256.08 34.07Q256.08 36.46 255.26 38.90Q254.44 41.33 253.01 43.54Q251.58 45.74 249.74 47.46Q247.89 49.19 245.85 50.17Q243.81 51.16 241.76 51.16L241.76 51.16Q239.36 51.16 237.83 49.71Q236.30 48.26 236.30 45.95L236.30 45.95Q236.30 44.86 236.76 42.87Q237.22 40.87 238.10 38.10L238.10 38.10L243.18 21.72Q243.39 20.96 243.60 20.18Q243.81 19.41 243.81 19.03L243.81 19.03Q243.81 18.27 243.04 17.92Q242.26 17.56 240.62 17.56L240.62 17.56L240.96 16.30ZM242.43 49.02L242.43 49.02Q243.60 49.02 244.91 48.05Q246.21 47.09 247.45 45.45Q248.69 43.81 249.69 41.81Q250.70 39.82 251.31 37.72Q251.92 35.62 251.92 33.73L251.92 33.73Q251.92 32.26 251.25 31.29Q250.58 30.33 249.61 30.33L249.61 30.33Q248.48 30.33 247.19 31.29Q245.91 32.26 244.70 33.90Q243.48 35.54 242.47 37.55Q241.46 39.57 240.87 41.65Q240.29 43.73 240.29 45.57L240.29 45.57Q240.29 49.02 242.43 49.02ZM265.40 51.16L265.40 51.16Q263.51 51.16 261.96 50.15Q260.40 49.14 259.48 47.25Q258.56 45.36 258.56 42.72L258.56 42.72Q258.56 39.99 259.56 37.36Q260.57 34.74 262.29 32.64Q264.02 30.54 266.16 29.30Q268.30 28.06 270.61 28.06L270.61 28.06Q272.63 28.06 274.20 29.07Q275.78 30.08 276.66 31.88Q277.54 33.69 277.54 36.12L277.54 36.12Q277.54 38.77 276.51 41.44Q275.48 44.10 273.74 46.29Q272.00 48.47 269.83 49.82Q267.67 51.16 265.40 51.16ZM265.65 49.06L265.65 49.06Q266.79 49.06 267.92 48.12Q269.06 47.17 270.06 45.57Q271.07 43.98 271.85 42.00Q272.63 40.03 273.07 37.93Q273.51 35.83 273.51 33.94L273.51 33.94Q273.51 31.71 272.73 30.87Q271.95 30.03 270.61 30.03L270.61 30.03Q269.48 30.03 268.36 30.96Q267.25 31.88 266.28 33.44Q265.32 34.99 264.56 36.92Q263.81 38.85 263.39 40.89Q262.97 42.93 262.97 44.78L262.97 44.78Q262.97 47.09 263.72 48.07Q264.48 49.06 265.65 49.06ZM298.62 35.75L298.62 35.75Q298.62 34.61 298.39 33.75Q298.16 32.89 297.91 32.09Q297.66 31.29 297.66 30.45L297.66 30.45Q297.66 28.06 299.84 28.06L299.84 28.06Q301.14 28.06 301.71 29.00Q302.28 29.95 302.28 32.05L302.28 32.05Q302.28 34.74 301.50 37.45Q300.72 40.16 299.38 42.61Q298.04 45.07 296.33 47.00Q294.63 48.93 292.74 50.05Q290.85 51.16 289.01 51.16L289.01 51.16Q287.49 51.16 286.28 50.38Q285.06 49.61 284.37 48.26Q283.67 46.92 283.67 45.24L283.67 45.24Q283.67 42.84 284.97 39.61Q286.28 36.38 288.67 32.93L288.67 32.93L288.59 32.81Q287.07 32.81 286.21 32.26Q285.35 31.71 284.81 31.17Q284.26 30.62 283.67 30.62L283.67 30.62Q282.96 30.62 282.96 31.34L282.96 31.34Q282.96 31.84 283.34 32.22Q283.71 32.60 284.07 33.02Q284.43 33.44 284.43 34.11L284.43 34.11Q284.43 34.86 283.84 35.35Q283.25 35.83 282.33 35.83L282.33 35.83Q281.28 35.83 280.67 35.14Q280.06 34.44 280.06 33.27L280.06 33.27Q280.06 31.88 280.80 30.69Q281.53 29.49 282.71 28.77Q283.88 28.06 285.27 28.06L285.27 28.06Q286.40 28.06 287.10 28.50Q287.79 28.94 288.42 29.40Q289.05 29.87 289.93 29.87L289.93 29.87Q290.39 29.87 290.71 29.72Q291.02 29.57 291.36 29.24L291.36 29.24Q292.24 28.44 292.56 28.25Q292.87 28.06 293.37 28.06L293.37 28.06Q294.21 28.06 294.21 28.77L294.21 28.77Q294.21 28.98 294.13 29.19Q294.05 29.40 293.69 29.85Q293.33 30.29 292.49 31.29L292.49 31.29Q291.23 32.85 290.22 34.91Q289.22 36.96 288.65 39.15Q288.08 41.33 288.08 43.26L288.08 43.26Q288.08 45.49 288.86 46.88Q289.64 48.26 290.85 48.26L290.85 48.26Q291.78 48.26 292.85 47.46Q293.92 46.67 294.93 45.30Q295.94 43.94 296.78 42.30Q297.62 40.66 298.12 38.96Q298.62 37.26 298.62 35.75ZM310.13 51.16L310.13 51.16Q307.28 51.16 305.70 49.35Q304.13 47.55 304.13 44.31L304.13 44.31Q304.13 42.00 304.90 39.67Q305.68 37.34 307.02 35.26Q308.37 33.18 310.09 31.57Q311.81 29.95 313.72 29.00Q315.63 28.06 317.57 28.06L317.57 28.06Q319.58 28.06 320.86 29.09Q322.14 30.12 322.14 31.71L322.14 31.71Q322.14 33.18 321.07 34.72Q320.00 36.25 318.09 37.68Q316.18 39.11 313.70 40.22Q311.22 41.33 308.41 41.96L308.41 41.96Q308.33 42.55 308.28 43.12Q308.24 43.68 308.24 44.27L308.24 44.27Q308.24 46.50 309.08 47.67Q309.92 48.85 311.48 48.85L311.48 48.85Q313.03 48.85 314.69 47.63Q316.35 46.41 317.78 44.27L317.78 44.27L319.12 45.15Q317.31 48.09 315.03 49.63Q312.74 51.16 310.13 51.16ZM308.83 40.07L308.83 40.07Q311.52 39.32 313.64 38.01Q315.76 36.71 316.98 35.09Q318.20 33.48 318.20 31.80L318.20 31.80Q318.20 30.03 316.73 30.03L316.73 30.03Q315.63 30.03 314.46 30.87Q313.28 31.71 312.21 33.14Q311.14 34.57 310.26 36.36Q309.38 38.14 308.83 40.07ZM338.61 51.16L338.61 51.16Q337.18 51.16 336.51 50.51Q335.84 49.86 335.84 48.43L335.84 48.43Q335.84 47.59 336.13 46.14Q336.42 44.69 337.14 42.26L337.14 42.26L340.25 31.97L336.63 31.97L337.18 30.03L340.83 30.03L343.02 22.81L346.88 22.81L344.70 30.03L349.28 30.03L348.69 31.97L344.11 31.97L340.62 43.52Q340.29 44.65 340.10 45.51Q339.91 46.37 339.87 46.96L339.87 46.96Q339.87 47.34 340.06 47.63Q340.25 47.93 340.71 47.93L340.71 47.93Q341.46 47.93 342.30 47.38Q343.14 46.83 343.92 46.02Q344.70 45.20 345.31 44.40Q345.92 43.60 346.21 43.14L346.21 43.14L347.43 43.85Q346.71 45.28 345.64 46.60Q344.57 47.93 343.33 48.95Q342.09 49.98 340.86 50.57Q339.62 51.16 338.61 51.16ZM364.40 37.68L364.40 37.68Q364.90 36.25 365.19 35.22Q365.49 34.19 365.61 33.44Q365.74 32.68 365.74 32.05L365.74 32.05Q365.74 31.08 365.43 30.69Q365.11 30.29 364.35 30.29L364.35 30.29Q362.63 30.29 360.95 32.09Q359.27 33.90 357.49 37.78Q355.70 41.67 353.64 47.84L353.64 47.84L352.68 50.74L349.15 50.74L357.47 22.26Q357.76 21.21 357.93 20.39Q358.10 19.58 358.10 19.16L358.10 19.16Q358.10 18.32 357.30 17.96Q356.50 17.60 354.36 17.56L354.36 17.56L354.65 15.88L363.22 15.88L358.43 32.09L358.56 32.18Q359.90 30.20 361.67 29.13Q363.43 28.06 365.36 28.06L365.36 28.06Q367.34 28.06 368.41 29.24Q369.48 30.41 369.48 32.64L369.48 32.64Q369.48 34.02 369.06 35.87Q368.64 37.72 367.76 40.11L367.76 40.11Q366.96 42.38 366.48 43.70Q365.99 45.03 365.78 45.68Q365.57 46.33 365.51 46.58Q365.45 46.83 365.45 47.04L365.45 47.04Q365.45 48.01 366.24 48.01L366.24 48.01Q367.08 48.01 368.32 47.00Q369.56 45.99 370.82 44.27L370.82 44.27L372.00 45.15Q371.12 46.79 369.67 48.16Q368.22 49.52 366.62 50.34Q365.03 51.16 363.60 51.16L363.60 51.16Q362.46 51.16 361.96 50.53Q361.46 49.90 361.46 48.51L361.46 48.51Q361.46 47.55 361.69 46.39Q361.92 45.24 362.55 43.20Q363.18 41.16 364.40 37.68ZM380.15 51.16L380.15 51.16Q377.29 51.16 375.72 49.35Q374.14 47.55 374.14 44.31L374.14 44.31Q374.14 42.00 374.92 39.67Q375.69 37.34 377.04 35.26Q378.38 33.18 380.10 31.57Q381.83 29.95 383.74 29.00Q385.65 28.06 387.58 28.06L387.58 28.06Q389.60 28.06 390.88 29.09Q392.16 30.12 392.16 31.71L392.16 31.71Q392.16 33.18 391.09 34.72Q390.02 36.25 388.11 37.68Q386.19 39.11 383.72 40.22Q381.24 41.33 378.42 41.96L378.42 41.96Q378.34 42.55 378.30 43.12Q378.26 43.68 378.26 44.27L378.26 44.27Q378.26 46.50 379.10 47.67Q379.94 48.85 381.49 48.85L381.49 48.85Q383.04 48.85 384.70 47.63Q386.36 46.41 387.79 44.27L387.79 44.27L389.13 45.15Q387.33 48.09 385.04 49.63Q382.75 51.16 380.15 51.16ZM378.84 40.07L378.84 40.07Q381.53 39.32 383.65 38.01Q385.77 36.71 386.99 35.09Q388.21 33.48 388.21 31.80L388.21 31.80Q388.21 30.03 386.74 30.03L386.74 30.03Q385.65 30.03 384.47 30.87Q383.30 31.71 382.23 33.14Q381.15 34.57 380.27 36.36Q379.39 38.14 378.84 40.07ZM426.85 20.79L426.85 20.79L427.69 19.03L428.95 19.03L427.19 27.30L425.76 27.30Q425.63 23.52 424.37 21.82Q423.11 20.12 420.42 20.12L420.42 20.12Q417.86 20.12 416.18 21.51Q414.50 22.89 414.50 25.04L414.50 25.04Q414.50 26.55 415.32 27.72Q416.14 28.90 417.46 29.93Q418.79 30.96 420.24 32.01Q421.68 33.06 423.01 34.30Q424.33 35.54 425.15 37.15Q425.97 38.77 425.97 40.91L425.97 40.91Q425.97 43.73 424.54 46.06Q423.11 48.39 420.70 49.77Q418.28 51.16 415.30 51.16L415.30 51.16Q412.99 51.16 411.00 50.26Q409 49.35 407.28 47.55L407.28 47.55L406.40 50.74L404.93 50.74L406.69 40.07L408.08 40.07Q408.37 44.40 410.24 46.67Q412.11 48.93 415.34 48.93L415.34 48.93Q417.36 48.93 418.91 48.18Q420.47 47.42 421.35 46.10Q422.23 44.78 422.23 43.10L422.23 43.10Q422.23 41.33 421.37 39.97Q420.51 38.60 419.16 37.45Q417.82 36.29 416.31 35.18Q414.80 34.07 413.45 32.85Q412.11 31.63 411.25 30.14Q410.39 28.65 410.39 26.72L410.39 26.72Q410.39 24.28 411.71 22.31Q413.03 20.33 415.30 19.16Q417.57 17.98 420.30 17.98L420.30 17.98Q422.27 17.98 423.85 18.65Q425.42 19.32 426.85 20.79ZM435.71 51.16L435.71 51.16Q432.86 51.16 431.28 49.35Q429.71 47.55 429.71 44.31L429.71 44.31Q429.71 42.00 430.48 39.67Q431.26 37.34 432.60 35.26Q433.95 33.18 435.67 31.57Q437.39 29.95 439.30 29.00Q441.21 28.06 443.15 28.06L443.15 28.06Q445.16 28.06 446.44 29.09Q447.72 30.12 447.72 31.71L447.72 31.71Q447.72 33.18 446.65 34.72Q445.58 36.25 443.67 37.68Q441.76 39.11 439.28 40.22Q436.80 41.33 433.99 41.96L433.99 41.96Q433.91 42.55 433.86 43.12Q433.82 43.68 433.82 44.27L433.82 44.27Q433.82 46.50 434.66 47.67Q435.50 48.85 437.06 48.85L437.06 48.85Q438.61 48.85 440.27 47.63Q441.93 46.41 443.36 44.27L443.36 44.27L444.70 45.15Q442.89 48.09 440.61 49.63Q438.32 51.16 435.71 51.16ZM434.41 40.07L434.41 40.07Q437.10 39.32 439.22 38.01Q441.34 36.71 442.56 35.09Q443.78 33.48 443.78 31.80L443.78 31.80Q443.78 30.03 442.31 30.03L442.31 30.03Q441.21 30.03 440.04 30.87Q438.86 31.71 437.79 33.14Q436.72 34.57 435.84 36.36Q434.96 38.14 434.41 40.07ZM453.23 51.16L453.23 51.16Q451.13 51.16 449.91 49.52Q448.69 47.88 448.69 45.07L448.69 45.07Q448.69 42.76 449.47 40.34Q450.24 37.93 451.61 35.75Q452.97 33.56 454.67 31.82Q456.38 30.08 458.27 29.07Q460.16 28.06 461.96 28.06L461.96 28.06Q464.65 28.06 465.66 30.83L465.66 30.83L466.54 28.48L470.03 28.48L467.63 34.91Q467.04 36.50 466.48 38.31Q465.91 40.11 465.47 41.81Q465.03 43.52 464.78 44.86Q464.52 46.20 464.52 46.92L464.52 46.92Q464.52 48.14 465.32 48.14L465.32 48.14Q465.91 48.14 467.02 46.92Q468.14 45.70 469.52 43.77L469.52 43.77L470.61 44.65Q468.89 47.72 466.83 49.44Q464.78 51.16 462.89 51.16L462.89 51.16Q461.92 51.16 461.39 50.43Q460.87 49.69 460.87 48.01L460.87 48.01Q460.87 47.63 460.91 47.11Q460.95 46.58 461.00 45.78L461.00 45.78L460.83 45.74Q460.03 47.30 458.77 48.51Q457.51 49.73 456.06 50.45Q454.61 51.16 453.23 51.16ZM455.03 48.18L455.03 48.18Q456.21 48.18 457.45 47.11Q458.69 46.04 459.84 44.27Q461.00 42.51 461.92 40.41Q462.84 38.31 463.39 36.27Q463.94 34.23 463.94 32.60L463.94 32.60Q463.94 31.50 463.47 30.87Q463.01 30.24 462.21 30.24L462.21 30.24Q460.91 30.24 459.57 31.19Q458.22 32.13 457.01 33.71Q455.79 35.28 454.80 37.22Q453.81 39.15 453.25 41.14Q452.68 43.14 452.68 44.86L452.68 44.86Q452.68 46.37 453.33 47.27Q453.98 48.18 455.03 48.18ZM490.31 51.16L490.31 51.16Q488.42 51.16 486.87 50.15Q485.31 49.14 484.39 47.25Q483.47 45.36 483.47 42.72L483.47 42.72Q483.47 39.99 484.47 37.36Q485.48 34.74 487.20 32.64Q488.93 30.54 491.07 29.30Q493.21 28.06 495.52 28.06L495.52 28.06Q497.54 28.06 499.11 29.07Q500.69 30.08 501.57 31.88Q502.45 33.69 502.45 36.12L502.45 36.12Q502.45 38.77 501.42 41.44Q500.39 44.10 498.65 46.29Q496.91 48.47 494.74 49.82Q492.58 51.16 490.31 51.16ZM490.56 49.06L490.56 49.06Q491.70 49.06 492.83 48.12Q493.97 47.17 494.97 45.57Q495.98 43.98 496.76 42.00Q497.54 40.03 497.98 37.93Q498.42 35.83 498.42 33.94L498.42 33.94Q498.42 31.71 497.64 30.87Q496.86 30.03 495.52 30.03L495.52 30.03Q494.39 30.03 493.27 30.96Q492.16 31.88 491.19 33.44Q490.23 34.99 489.47 36.92Q488.72 38.85 488.30 40.89Q487.88 42.93 487.88 44.78L487.88 44.78Q487.88 47.09 488.63 48.07Q489.39 49.06 490.56 49.06ZM518.45 31.84L514.34 31.84L510.39 47.67Q509.34 51.96 508.22 54.69Q507.11 57.42 505.87 58.93Q504.63 60.44 503.16 61.05Q501.69 61.66 499.89 61.66L499.89 61.66Q498.75 61.66 497.83 61.24Q496.91 60.82 496.38 60.09Q495.86 59.35 495.86 58.47L495.86 58.47Q495.86 57.42 496.40 56.81Q496.95 56.20 497.91 56.20L497.91 56.20Q498.80 56.20 499.15 56.64Q499.51 57.08 499.70 57.67Q499.89 58.26 500.22 58.70Q500.56 59.14 501.36 59.14L501.36 59.14Q502.32 59.14 503.12 58.15Q503.92 57.17 504.34 55.49L504.34 55.49L510.43 31.84L506.40 31.84L506.94 29.91L510.93 29.91Q512.19 24.87 513.71 21.78Q515.22 18.69 517.04 17.29Q518.87 15.88 521.06 15.88L521.06 15.88Q523.53 15.88 525.13 16.91Q526.73 17.94 526.73 19.49L526.73 19.49Q526.73 20.42 526.20 21.11Q525.68 21.80 524.71 21.80L524.71 21.80Q523.74 21.80 523.28 21.40Q522.82 21.00 522.65 20.39Q522.48 19.79 522.32 19.18Q522.15 18.57 521.81 18.17Q521.48 17.77 520.68 17.77L520.68 17.77Q519.59 17.77 518.49 19.32Q517.40 20.88 516.46 23.63Q515.51 26.38 514.80 29.91L514.80 29.91L519.04 29.91L518.45 31.84ZM542.56 50.74L527.86 50.74L528.32 49.06Q530.17 49.06 531.20 48.66Q532.23 48.26 532.84 47.17Q533.45 46.08 533.95 44.10L533.95 44.10L538.82 25.58Q539.12 24.49 539.26 23.69Q539.41 22.89 539.41 22.31L539.41 22.31Q539.41 20.92 538.44 20.50Q537.48 20.08 535.21 20.08L535.21 20.08L535.67 18.40L558.60 18.40L558.60 26.88L557.01 26.88Q556.29 24.20 555.33 22.77Q554.36 21.34 553.04 20.79Q551.72 20.25 549.95 20.25L549.95 20.25L544.49 20.25L541.22 32.72L544.07 32.72Q545.58 32.72 546.55 32.32Q547.52 31.92 548.27 30.89Q549.03 29.87 549.91 27.93L549.91 27.93L551.46 27.93L548.52 41.21L546.84 41.21Q546.97 39.69 546.97 38.60L546.97 38.60Q546.97 36.50 546.34 35.54Q545.71 34.57 544.03 34.57L544.03 34.57L540.67 34.57L538.28 43.60Q538.11 44.27 538.00 44.86Q537.90 45.45 537.90 45.95L537.90 45.95Q537.90 47.46 539.05 48.20Q540.21 48.93 543.02 48.93L543.02 48.93L542.56 50.74ZM563.52 51.16L563.52 51.16Q561.63 51.16 560.07 50.15Q558.52 49.14 557.60 47.25Q556.67 45.36 556.67 42.72L556.67 42.72Q556.67 39.99 557.68 37.36Q558.69 34.74 560.41 32.64Q562.13 30.54 564.27 29.30Q566.42 28.06 568.73 28.06L568.73 28.06Q570.74 28.06 572.32 29.07Q573.89 30.08 574.77 31.88Q575.66 33.69 575.66 36.12L575.66 36.12Q575.66 38.77 574.63 41.44Q573.60 44.10 571.85 46.29Q570.11 48.47 567.95 49.82Q565.79 51.16 563.52 51.16ZM563.77 49.06L563.77 49.06Q564.90 49.06 566.04 48.12Q567.17 47.17 568.18 45.57Q569.19 43.98 569.96 42.00Q570.74 40.03 571.18 37.93Q571.62 35.83 571.62 33.94L571.62 33.94Q571.62 31.71 570.85 30.87Q570.07 30.03 568.73 30.03L568.73 30.03Q567.59 30.03 566.48 30.96Q565.37 31.88 564.40 33.44Q563.43 34.99 562.68 36.92Q561.92 38.85 561.50 40.89Q561.08 42.93 561.08 44.78L561.08 44.78Q561.08 47.09 561.84 48.07Q562.59 49.06 563.77 49.06ZM584.77 61.66L584.77 61.66Q581.70 61.66 579.39 60.90Q577.08 60.15 575.78 58.83Q574.48 57.50 574.48 55.74L574.48 55.74Q574.48 54.02 575.61 52.88Q576.75 51.75 578.43 51.75L578.43 51.75Q578.93 51.75 579.41 51.87Q579.90 52 580.57 52.34L580.57 52.34Q579.44 52.80 578.83 53.74Q578.22 54.69 578.22 55.99L578.22 55.99Q578.22 57.75 580.02 58.76Q581.83 59.77 584.90 59.77L584.90 59.77Q587.16 59.77 588.91 59.14Q590.65 58.51 591.64 57.57Q592.62 56.62 592.62 55.65L592.62 55.65Q592.62 54.86 591.99 54.16Q591.36 53.47 590.17 52.95Q588.97 52.42 587.25 52.13L587.25 52.13Q584.98 51.75 583.30 51.29Q581.62 50.82 580.53 50.28Q579.44 49.73 578.91 49.00Q578.39 48.26 578.39 47.34L578.39 47.34Q578.39 46.12 579.46 45.26Q580.53 44.40 583.30 43.60L583.30 43.60L583.38 43.43Q581.79 42.30 580.99 40.85Q580.19 39.40 580.19 37.59L580.19 37.59Q580.19 34.99 581.56 32.81Q582.92 30.62 585.21 29.32Q587.50 28.02 590.19 28.02L590.19 28.02Q593.30 28.02 595.40 30.29L595.40 30.29Q596.36 29.19 597.33 28.63Q598.29 28.06 599.22 28.06L599.22 28.06Q600.56 28.06 601.57 28.88Q602.58 29.70 602.58 30.79L602.58 30.79Q602.58 31.63 602.01 32.20Q601.44 32.76 600.60 32.76L600.60 32.76Q599.97 32.76 599.62 32.49Q599.26 32.22 599.01 31.88Q598.76 31.55 598.46 31.27Q598.17 31 597.58 31L597.58 31Q597.29 31 597.03 31.11Q596.78 31.21 596.11 31.67L596.11 31.67Q596.49 32.64 596.49 34.11L596.49 34.11Q596.49 38.69 593.93 41.46Q591.36 44.23 586.87 44.57L586.87 44.57Q584.90 44.73 584.01 45.07Q583.13 45.41 583.13 46.08L583.13 46.08Q583.13 46.96 584.06 47.42Q584.98 47.88 586.43 48.16Q587.88 48.43 589.52 48.72Q591.15 49.02 592.60 49.56Q594.05 50.11 594.98 51.12Q595.90 52.13 595.90 53.81L595.90 53.81Q595.90 56.20 594.53 57.96Q593.17 59.73 590.67 60.69Q588.17 61.66 584.77 61.66ZM587.08 42.72L587.08 42.72Q588.09 42.72 589.05 41.92Q590.02 41.12 590.80 39.80Q591.57 38.48 592.04 36.80Q592.50 35.12 592.50 33.35L592.50 33.35Q592.50 31.67 591.74 30.69Q590.99 29.70 589.77 29.70L589.77 29.70Q588.80 29.70 587.79 30.54Q586.79 31.38 585.97 32.76Q585.15 34.15 584.64 35.83Q584.14 37.51 584.14 39.15L584.14 39.15Q584.14 40.70 584.96 41.71Q585.78 42.72 587.08 42.72Z"/>
</svg>
